Coordinates
version=1
nRows=8
nColumns=34
inDegrees=yes

Units are S.I. units (second, meters, Newtons, ...)
If the header above contains a line with 'inDegrees', this indicates whether rotational values are in degrees (yes) or radians (no).

endheader
time	pelvis_tilt	pelvis_list	pelvis_rotation	pelvis_tx	pelvis_ty	pelvis_tz	hip_flexion_r	hip_adduction_r	hip_rotation_r	knee_angle_r	ankle_angle_r	subtalar_angle_r	mtp_angle_r	hip_flexion_l	hip_adduction_l	hip_rotation_l	knee_angle_l	ankle_angle_l	subtalar_angle_l	mtp_angle_l	lumbar_extension	lumbar_bending	lumbar_rotation	arm_flex_r	arm_add_r	arm_rot_r	elbow_flex_r	pro_sup_r	arm_flex_l	arm_add_l	arm_rot_l	elbow_flex_l	pro_sup_l
      3.95000000	      6.55265459	      3.42268741	    -25.43326733	      0.04279993	      1.00781961	      0.00222399	     -7.96315242	     -5.36887685	      0.71864810	      7.09447076	      8.97178680	     -1.45273060	      0.00000000	     -4.63007086	     -6.05656476	     -1.71336366	     12.95733919	      9.41273644	     -1.34810867	      0.00000000	    -11.34372033	      0.33186989	      0.04568872	      7.85321746	    -10.74390852	     25.15334185	     17.11189877	    119.34011129	      7.33698420	    -10.24582701	     21.99231012	     21.37627422	    119.32206620
      3.96666670	      6.53356909	      3.35135918	    -25.44983320	      0.04337832	      1.00807546	      0.00015600	     -7.94624031	     -5.43120378	      0.72320321	      7.09472139	      8.96562623	     -1.45231003	      0.00000000	     -4.62461662	     -5.99485123	     -1.71555627	     12.96348961	      9.40392706	     -1.34274606	      0.00000000	    -11.38938863	      0.42194098	      0.05449649	      7.75506151	    -10.75097399	     25.13697731	     17.06195454	    119.33558324	      7.27039309	    -10.35520171	     21.96386422	     21.32697941	    119.31525741
      3.98333330	      6.71525919	      3.21684929	    -25.80708801	      0.04551436	      1.00857821	     -0.00060615	     -8.29836566	     -5.56625951	      0.96180114	      6.95359617	      8.83635571	     -1.32965804	      0.00000000	     -5.40729332	     -5.82881391	     -1.88001404	     12.29793360	      9.18180654	     -1.44758225	      0.00000000	    -11.34004213	      0.41917297	      0.29073813	      7.25290315	    -10.41359967	     21.31652962	     16.82092483	    118.37502937	      6.47674433	    -10.05045634	     18.46746125	     21.62198737	    118.33607117
      4.00000000	      6.68273155	      3.14111388	    -25.83738671	      0.04633337	      1.00874025	     -0.00234721	     -8.30185893	     -5.60494481	      0.95362615	      6.92785614	      8.82404440	     -1.32856373	      0.00000000	     -5.42717403	     -5.78525566	     -1.88397430	     12.29943270	      9.19101357	     -1.45234660	      0.00000000	    -11.30374222	      0.46101335	      0.29341016	      7.15303074	    -10.52520702	     21.27615820	     16.73792427	    118.36983546	      6.36448216	    -10.23749517	     18.42663672	     21.53454732	    118.32904750
      4.01666670	      6.51323656	      3.09950556	    -25.91437171	      0.04827813	      1.00871509	     -0.00357223	     -8.38509757	     -5.61921333	      0.95113227	      6.59616723	      8.72375224	     -1.24253860	      0.00000000	     -5.63013241	     -5.74321333	     -1.94024292	     11.84471965	      9.31798158	     -1.46681602	      0.00000000	    -10.85963269	      0.54568158	      0.27895192	      6.88456610	    -10.50490537	     20.90917517	     16.41619995	    118.29725124	      5.91523779	    -10.29368951	     18.12172679	     21.34067366	    118.25463494
      4.03333330	      6.50882986	      3.01180483	    -25.93373415	      0.04911440	      1.00893863	     -0.00528321	     -8.40205330	     -5.65315360	      0.96139718	      6.61811616	      8.69997887	     -1.23697623	      0.00000000	     -5.67219098	     -5.70045954	     -1.92467093	     11.85882468	      9.29858261	     -1.44716643	      0.00000000	    -10.85782538	      0.56043431	      0.27964223	      6.78238277	    -10.63557228	     20.84488484	     16.33903747	    118.28258257	      5.77287140	    -10.47293080	     18.05391313	     21.25243577	    118.23897856
      4.05000000	      6.82553917	      2.82176160	    -26.08818970	      0.05109301	      1.00967177	     -0.00622493	     -9.05622457	     -5.74521866	      1.27355840	      6.26028313	      8.47306336	     -1.36247380	      0.00000000	     -6.62999494	     -5.55082585	     -1.92858120	     11.04124082	      9.07089525	     -1.40824476	      0.00000000	    -11.05903818	      0.53067518	      0.23551294	      6.36257190	    -10.36276927	     17.40646787	     16.68572926	    117.55920200	      5.03900246	    -10.25664550	     14.84374483	     21.60888130	    117.48325134
      4.06666670	      6.81556775	      2.74484315	    -26.09696013	      0.05185075	      1.00986083	     -0.00790269	     -9.04840217	     -5.78830000	      1.26325421	      6.27796651	      8.46067904	     -1.37565630	      0.00000000	     -6.63625315	     -5.51147550	     -1.93039675	     11.06401231	      9.07876356	     -1.41322925	      0.00000000	    -11.06078684	      0.52615404	      0.23738788	      6.28728304	    -10.52846321	     17.37066609	     16.61657162	    117.55630347	      4.90752585	    -10.44183224	     14.81281535	     21.49105790	    117.48030007
